<svg width="14" height="13" viewBox="0 0 14 13" fill="none" xmlns="http://www.w3.org/2000/svg">
<path fill-rule="evenodd" clip-rule="evenodd" d="M12.5328 1.60704C12.8934 1.95971 13.1818 2.37932 13.3817 2.84236C13.5891 3.32426 13.6951 3.836 13.6936 4.36265C13.6936 4.85947 13.5921 5.37717 13.3907 5.90382C13.2236 6.34395 12.9804 6.80048 12.6716 7.26149C12.1822 7.99105 11.5094 8.75194 10.6739 9.52327C9.28786 10.8019 7.91826 11.6836 7.86007 11.7209L7.50648 11.9477C7.34983 12.0476 7.14842 12.0476 6.99177 11.9477L6.63818 11.7209C6.57999 11.6851 5.2089 10.8019 3.82437 9.52327C2.98889 8.75194 2.31602 7.99105 1.82667 7.26149C1.51784 6.80048 1.27614 6.34395 1.10755 5.90382C0.90614 5.37717 0.804688 4.85947 0.804688 4.36265C0.804688 3.836 0.910615 3.32426 1.11799 2.84236C1.31743 2.37902 1.60585 1.95932 1.96691 1.60704C2.32945 1.25195 2.75167 0.972962 3.22014 0.77901C3.70502 0.577598 4.21825 0.476146 4.74789 0.476146C5.48341 0.476146 6.20104 0.677558 6.82467 1.058C6.97386 1.14901 7.1156 1.24897 7.24987 1.35788C7.38415 1.24897 7.52588 1.14901 7.67507 1.058C8.2987 0.677558 9.01633 0.476146 9.75185 0.476146C10.2761 0.474939 10.7954 0.577886 11.2796 0.77901C11.7465 0.972202 12.172 1.25331 12.5328 1.60704ZM1.93856 4.36265C1.93856 7.36443 7.24987 10.7675 7.24987 10.7675C7.24987 10.7675 7.24991 10.7675 7.25 10.7675C7.22227 10.7497 1.9388 7.35654 1.9388 4.36264C1.9388 2.90029 3.10247 1.70436 4.57205 1.61532C3.10235 1.70424 1.93856 2.90022 1.93856 4.36265ZM9.56811 1.61581C8.5558 1.67982 7.68917 2.26895 7.24999 3.10769C7.25003 3.10777 7.25007 3.10784 7.25011 3.10791C7.68921 2.26911 8.55581 1.67991 9.56811 1.61581Z" fill="#061178"/>
</svg>
